<?xml version="1.0" encoding="UTF-8" standalone="no"?>
<!DOCTYPE svg PUBLIC "-//W3C//DTD SVG 1.1//EN" "http://www.w3.org/Graphics/SVG/1.1/DTD/svg11.dtd">
<svg width="60.00" height="60.00" viewBox="0.00 0.00 60.00 60.00" xmlns="http://www.w3.org/2000/svg" xmlns:xlink="http://www.w3.org/1999/xlink">
<g stroke-linecap="round" id="Layer_2_Copy">
<path d="M19.00,46.00 L19.00,58.50 L0.50,58.50 L0.50,0.50 L58.50,0.50 L58.50,58.50 L40.57,58.50 L40.00,46.00" fill="none" stroke="rgb(255, 255, 255)" stroke-width="3.00" stroke-opacity="1.00" stroke-linejoin="miter"/>
<path d="M18.92,45.28" fill="none" stroke="rgb(255, 255, 255)" stroke-width="1.40" stroke-opacity="1.00" stroke-linejoin="round"/>
<path d="M18.92,45.28 C15.59,42.26 12.71,39.17 11.57,36.05 C10.45,32.80 10.46,26.34 11.63,22.96 C12.77,19.83 17.33,14.53 19.96,12.98 C22.62,11.48 29.50,10.18 32.77,10.77 C36.38,11.48 41.66,14.53 44.08,17.29 C46.22,19.83 48.53,26.34 48.56,29.50 C48.54,32.81 46.29,39.17 43.97,41.66 C43.41,42.24 40.78,44.63 39.99,45.34" fill="none" stroke="rgb(255, 255, 255)" stroke-width="1.40" stroke-opacity="1.00" stroke-linejoin="round"/>
</g>
</svg>
