<svg width="579.894" height="196.313" viewBox="0 0 579.894 196.313" xml:space="preserve" xmlns="http://www.w3.org/2000/svg"><g stroke-linecap="round"><path d="M573.05 196.02c-.905 1.036-8.82 10.34-11.31 11.65-7.33 3.153-12.759-4.241-16.518-9.56-2.25-3.41-3.722-9.4-3.662-13.47.1-3.25 1.956-8.746 3.85-11.13 3.628-4.339 8.61-9.76 26.58-13.89 7.01-1.57 22.15-3.12 32.09-3.24 5.27-.02 11.47.5 14.81 1.38 4.894 1.406 7.608 4.524 8.9 9.34 1.05 4.65 1.66 9.83 1.48 13.2-.21 3.34-1.356 7.745-4.55 11.02-3.24 3.46-7.606 3.028-12.67.9-1.937-.82-5.175-2.28-6.04-2.92-.117 2.763-.23 19.8.16 25.68.14 1.86 1.15 6.77 1.88 8.35.993 1.932 8.347 5.814 9.59 9.076 2.094 3.204-.398 11.725-1.16 13.104-.647 1.416-3.6 5.412-7.148 7.715s-8.065 3.29-9.572 3.224a25.73 25.73 0 0 1-22.46-14.499c-1.68-3.45-3.684-11.982-4.03-15.97-.6-6.51-.294-27.768-.22-29.96zM665.92 255c-11.569-4.02-21.414-13.41-24.841-25.315-3.706-9.714-2.998-20.303-2.982-30.507.36-8.454 1.018-17.041 3.373-25.197 2.19-6.366 5.25-13.369 11.934-16.052 6.514-1.5 14.458-1.888 19.638 3.121 4.977 4.802 7.142 12.484 4.458 19.006-2.88 6.956-7.488 13.519-7.585 21.338-.958 7.42.328 15.673 5.545 21.326 4.21 3.63 10.243 1.643 13.563-2.14 4.624-4.42 3.265-11.412 2.866-17.11-1.853-9.497-5.806-19.012-3.635-28.838.802-5.385 4.962-10.34 10.441-11.344 4.888-1.918 10.407-1.154 14.266 2.51 5.474 4.05 7.482 11.034 9.409 17.252 1.753 10.418 2.69 21.033 2.546 31.602-.571 11.664-4.147 24.382-14.137 31.445-8.19 6.31-18.212 10.668-28.689 10.482-5.426.142-10.883-.323-16.17-1.579Z" fill="none" stroke="#000" stroke-width="3" style="fill:#000;fill-opacity:1" transform="translate(-540.058 -154.88)"/><g style="display:inline;fill:none;fill-opacity:1"><path style="fill:#000;fill-opacity:1" d="M774.65 158.936c-3.967-.069-7.872.15-11.431.746-8.262 2.912-9.634 8.186-12.903 13.484-7.045 14.273-11.155 29.823-14.351 45.36-1.335 8.043-2.987 16.877.992 24.472 2.592 6.9 9.651 10.5 16.004 13.262 8.758 2.072 17.85 2.637 26.805 1.722 11.764-1.425 24.386-2.16 34.533-8.955 4.324-3.551 6.895-9.03 8.199-14.384.515-5.744 1.196-11.966-1.18-17.39-2.715-7.15-14.966-10.939-17.017-11.751.833-.535 5.8-2.457 8.16-5.9 2.922-4.495 5.58-11.704 4.039-17.191-1.876-5.875-4.403-10.543-9.555-14.3-5.84-4.789-13.168-6.965-20.49-8.205-3.807-.548-7.837-.902-11.805-.97m7.85 23.875c5.86 7.913 2.43 13.324 1.28 14.76-1.08 1.23-5.619 2.422-8.038 2.507-2.97-.177-8.548.546-8.902-4.178.23-2.51 2.9-11.77 5-13.87 2.82-2.65 8.057-2.492 10.66.78m-7.162 30.238c2.037-.03 4.166.12 5.191.47 1.68.63 4.13 3.06 4.84 4.65.67 1.65 1.32 5.65 1.24 7.62-.13 1.94-1.309 5-2.369 6.13-1.12 1.09-4.24 2.412-6.25 2.632-1.81.17-5.98-.091-7.97-.451-1.8-.38-4.61-2.17-5.15-3.53-.3-.82.11-5.56.28-7.43.21-1.76.74-5.95 1.15-6.68.74-1.22 3.69-2.79 5.73-3.17.896-.143 2.086-.224 3.308-.241" transform="translate(-540.058 -154.88)"/></g><g style="fill:none;fill-opacity:1"><path style="fill:#000;fill-opacity:1" d="M853.126 85.395c-3.967-.068-7.872.15-11.431.746-8.262 2.912-9.634 8.186-12.903 13.485-7.045 14.272-11.155 29.822-14.351 45.359-1.335 8.044-2.987 16.878.992 24.473 2.592 6.9 9.651 10.5 16.004 13.261 8.758 2.073 17.85 2.637 26.805 1.723 11.764-1.425 24.386-2.16 34.533-8.955 4.324-3.552 6.895-9.031 8.2-14.385.514-5.743 1.195-11.965-1.18-17.389-2.716-7.151-14.967-10.94-17.018-11.752.833-.534 5.8-2.456 8.161-5.9 2.92-4.494 5.578-11.703 4.038-17.19-1.875-5.875-4.403-10.543-9.555-14.3-5.84-4.79-13.168-6.966-20.49-8.205-3.807-.548-7.837-.903-11.805-.97m7.85 23.875c5.86 7.913 2.43 13.325 1.28 14.76-1.08 1.23-5.618 2.422-8.038 2.508-2.97-.177-8.548.546-8.902-4.178.23-2.51 2.9-11.771 5-13.871 2.82-2.65 8.057-2.492 10.66.781m-7.162 30.238c2.037-.029 4.166.121 5.191.471 1.68.63 4.13 3.06 4.84 4.65.67 1.65 1.32 5.65 1.24 7.62-.13 1.94-1.309 5-2.369 6.13-1.12 1.09-4.24 2.411-6.25 2.631-1.81.17-5.98-.09-7.97-.45-1.8-.38-4.61-2.17-5.15-3.53-.3-.82.11-5.56.28-7.43.21-1.76.74-5.95 1.15-6.68.74-1.22 3.69-2.791 5.73-3.171.896-.143 2.086-.223 3.308-.24" transform="translate(-523.518 -80.804)"/></g><path style="fill:#000;fill-opacity:1" d="M970.438 158.434c-7.227.25-14.34 2.51-20.512 6.265-11.853 7.025-18.76 20.104-21.697 33.203-1.953 11.505-.914 23.675 3.41 34.541 4.463 10.582 14.569 17.56 25.213 20.973 13.536 5.261 29.142 2.911 41.54-4.215 11.832-7.074 19.235-20.57 19.133-34.318-.057-12.152-2.344-24.59-8.18-35.342-10.143-18.936-34.407-21.264-38.907-21.107m13.011 36.513c-.317 8.256-5.57 17.554-14.29 18.307-6.52.793-13.172-2.926-16.175-8.717-2.868-6.21-1.613-13.306 1.708-17.053 2.748-3.59 7.877-6.128 12.313-6.505 8.754-.196 15.52 3.87 16.444 13.968" transform="translate(-540.058 -154.88)"/><g style="display:inline;fill:none;fill-opacity:1"><path style="fill:#000;fill-opacity:1;stroke-width:.561856" d="M949.85 240.952c-2.23-.038-4.423.084-6.423.42-4.642 1.635-5.413 4.599-7.25 7.575-3.958 8.02-6.267 16.757-8.063 25.486-.75 4.52-1.678 9.483.558 13.75 1.456 3.877 5.422 5.9 8.992 7.451a45.5 45.5 0 0 0 15.06.968c6.61-.8 13.702-1.214 19.403-5.031 2.43-1.996 3.874-5.075 4.606-8.082.29-3.227.672-6.723-.662-9.77-1.526-4.019-8.41-6.147-9.562-6.603.468-.3 3.259-1.38 4.586-3.316 1.64-2.525 3.134-6.575 2.268-9.658-1.053-3.301-2.474-5.924-5.368-8.035-3.282-2.69-7.399-3.913-11.513-4.61a54 54 0 0 0-6.632-.545m4.41 13.414c3.292 4.446 1.365 7.487.72 8.293-.608.691-3.157 1.361-4.517 1.41-1.668-.1-4.803.306-5.001-2.348.129-1.41 1.629-6.614 2.809-7.794 1.585-1.488 4.527-1.4 5.99.44m-4.024 16.99c1.145-.016 2.341.068 2.917.264.944.354 2.32 1.72 2.72 2.613.376.927.741 3.174.696 4.281-.073 1.09-.735 2.81-1.331 3.445-.63.612-2.382 1.354-3.512 1.478-1.017.095-3.36-.051-4.478-.254-1.011-.213-2.59-1.218-2.894-1.982-.168-.461.063-3.124.158-4.175.118-.989.416-3.343.647-3.753.415-.685 2.072-1.569 3.218-1.782.504-.08 1.172-.125 1.86-.135" transform="translate(-447.518 -207.803)"/></g><path style="fill:#000;fill-opacity:1" d="M1098.984 186.674c-1.337.025-2.672.11-3.982.22-12.43 2.07-13.777 3.68-19.238 23.42-1.439 5.98-3.13 11.977-3.371 18.157.648 9.43 7.12 15.517 12.544 10.904 3.537-3.113 4.619-7.947 5.842-12.314 8.474 9.471 13.225 14.226 18.537 14.275 4.976-.637 13.156-4.282 9.625-12.063-2.423-3.8-6.318-6.437-10.181-8.623 8.962-4.7 10.347-7.97 11.156-12.617.423-7.37-2.895-15.01-9.318-19.012-3.556-1.955-7.602-2.423-11.614-2.347m-1.793 13.5c1.145-.012 2.247.279 3.061 1.219 1.548 1.492 1.705 3.873.871 5.77-.678 2.182-1.869 4.173-3.283 5.956-5.329 5.981-11.273 1.103-10.039-5.21.332-3.89 2.917-6.59 6.756-7.32.827-.213 1.744-.406 2.634-.415" transform="translate(-540.058 -154.88)"/><path d="M584.531 348.458c-10.192-3.542-18.867-11.815-21.887-22.305-3.265-8.558-2.641-17.887-2.627-26.879.317-7.448.897-15.014 2.972-22.2 1.93-5.608 4.626-11.779 10.515-14.143 5.739-1.322 12.739-1.663 17.302 2.75 4.386 4.231 6.293 11 3.928 16.745-2.538 6.13-6.597 11.912-6.683 18.801-.844 6.537.29 13.809 4.886 18.79 3.71 3.198 9.024 1.447 11.95-1.885 4.074-3.894 2.877-10.056 2.525-15.075-1.632-8.368-5.115-16.751-3.203-25.409.707-4.745 4.372-9.111 9.2-9.995 4.306-1.69 9.17-1.017 12.57 2.212 4.822 3.568 6.592 9.721 8.289 15.2 1.545 9.18 2.37 18.532 2.244 27.843-.504 10.277-3.655 21.483-12.456 27.706-7.217 5.56-16.046 9.4-25.277 9.236-4.781.125-9.59-.286-14.248-1.392z" fill="none" stroke="#000" stroke-width="2.643" style="fill:#000;fill-opacity:1" transform="translate(-540.058 -154.88)"/><path style="fill:#000;fill-opacity:1" d="M666.875 260.355a34.2 34.2 0 0 0-8.4 1.22c-6.732 1.781-15.292 4.324-15.975 11.905-2.546 16.472 2.863 62.915 15.26 70.8 5.629 3.41 15.217 1.071 18.38-4.39 2.978-6.306 1.02-12.535.085-15.685 7.896.892 16.338 1.083 23.644-3.256 16.686-10.603 10.355-36.997-3.27-49.43-2.81-2.52-7.999-5.828-11.699-7.468-5.871-2.368-11.902-3.824-18.025-3.696m.549 19.288q.722.009 1.556.127c5.13.879 9.055 3.578 11.004 6.85 4.64 8.104 3.046 25.142-8 17.354-1.5-1.117-10.474-8.895-10.523-18.074.07-3.177 1.307-6.327 5.963-6.257M749 260.12c-10.399.131-29.02-.172-29.555 14.09-.319 20.116 3.533 39.96 5.905 59.86 1.982 11.877 4.786 12.008 16.619 12.377 16.783.546 34.57 1.58 46.363-12.525 5.236-7.371 7.672-16.562 7.129-25.574-2.925-33.257-18.328-45.646-46.461-48.229m5.186 26.685c4.811.049 10.365 3.647 12.654 13.875 3.243 12.726-10.664 22.027-16.15 14.44-2.234-3.313-5.6-19.837-4.5-23.44.958-2.805 4.253-4.914 7.996-4.875" transform="translate(-540.058 -154.88)"/><path style="display:inline;fill:#000;fill-opacity:1" d="M850.442 258.862c-26.403 4.167-61.347 63.983-45.062 75.747 10.457 5.443 17.56.559 24.452-6.457 2.748-3.13 6.389-5.542 10.686-5.547 4.397 1.174 6.395 5.764 8.546 9.356 4.583 8.05 10.91 19.104 21.649 12.75 11.165-5.93 8.635-45.565 6.575-58.496-2.266-12.51-8.264-26.967-26.846-27.353m3.48 27.115q.649.02 1.238.173c5.08 3.673 3.046 21.154 2.42 22.62-2.472 4.1-7.019.979-9.82-1.05-1.89-1.4-3.23-1.93-5.64-2.28-6.872-1.013-7.575-4.856-6.7-7.05 1.531-3.484 12.025-12.637 18.502-12.413" transform="translate(-540.058 -154.88)"/><path d="M911.55 292.1c-.782.895-7.628 8.943-9.781 10.076-6.34 2.727-11.035-3.668-14.286-8.269-1.946-2.949-3.22-8.13-3.168-11.65.087-2.81 1.692-7.565 3.33-9.626 3.138-3.753 7.447-8.44 22.989-12.014 6.063-1.357 19.157-2.698 27.754-2.802 4.558-.017 9.92.433 12.81 1.194 4.233 1.216 6.58 3.912 7.697 8.078.908 4.022 1.436 8.502 1.28 11.417-.182 2.888-1.173 6.698-3.935 9.53-2.802 2.993-6.578 2.62-10.958.78-1.676-.71-4.476-1.972-5.224-2.526-.101 2.39-.2 17.125.138 22.21.121 1.609.995 5.855 1.626 7.222.859 1.671 7.219 5.029 8.295 7.85 1.81 2.771-.345 10.14-1.004 11.333-.56 1.225-3.114 4.681-6.182 6.673s-6.975 2.846-8.279 2.788a22.25 22.25 0 0 1-19.426-12.54c-1.453-2.984-3.186-10.363-3.485-13.812-.519-5.63-.254-24.017-.19-25.912z" fill="none" stroke="#000" stroke-width="2.595" style="fill:#000;fill-opacity:1" transform="translate(-540.058 -154.88)"/><path d="M965.16 340.96c-1.56-1.518-7.793-8.826-4.47-26.06 5.096-15.774 5.795-34.201 14.77-48.57 4.038-5.768 27.125-7.402 37.38-7.45 25.664.965 17.481 23.195 13.82 27.97-6.267 7.773-33.487-7.545-34.03 6.16-.429 7.182 15.128 2.28 19.77 4.17 7.119 3.281 3.598 15.133.7 16.74-10.65 5.51-26.545-4.424-27.2 6.55-.28 8.461 25.338 1.593 32.99 3.55 8.954 1.742 3.98 16.197-.68 18.88-15.945 6.378-46.601 4.083-53.05-1.94zm128.31-34.14c-8.017-8.617-20.758-9.605-29.648-16.96-4.029-4.714 4.126-9.891 7.463-5.1 2.52 3.7 6.049 7.697 11.046 6.281 4.852-.842 8.347-5.059 9.59-9.618 3.644-7.593-1.545-17.751-9.806-19.312-12.983-5.547-29.828-4.106-39.854 6.517-5.923 6.626-8.636 16.873-4.9 25.196 4.237 7.717 12.782 11.625 20.875 14 3.158 1.29 8.785 1.947 8.158 6.55-1.035 5.173-8.405 7.394-12.19 3.69-2.787-2.876-5.047-6.528-8.906-8.169-5.091-2.47-11.041.755-14.144 4.92-4.572 6.736-2.502 15.916 1.74 22.293 6.03 8.36 17.215 10.353 26.898 10.209 12.008-.32 25.144-2.618 33.811-11.674 7.275-7.794 6.225-20.831-.133-28.823z" fill="none" stroke="#000" stroke-width="3" style="fill:#000;fill-opacity:1" transform="translate(-540.058 -154.88)"/></g></svg>