<svg xmlns="http://www.w3.org/2000/svg" viewBox="0 -0.5 16 16" shape-rendering="crispEdges">
<metadata>Made with Pixels to Svg https://codepen.io/shshaw/pen/XbxvNj</metadata>
<path stroke="#ffffff" d="M1 0h2M1 1h1M3 1h2M1 2h1M5 2h2M14 2h1M1 3h1M3 3h1M7 3h2M12 3h3M1 4h1M4 4h2M9 4h3M14 4h1M1 5h1M3 5h1M8 5h2M14 5h1M1 6h1M4 6h4M11 6h2M14 6h1M1 7h1M3 7h1M6 7h1M9 7h2M14 7h1M1 8h1M4 8h3M8 8h1M11 8h2M14 8h1M1 9h2M6 9h1M9 9h2M14 9h1M3 10h2M6 10h1M8 10h1M11 10h2M14 10h1M5 11h2M9 11h2M14 11h1M6 12h1M8 12h1M12 12h2M6 13h1M10 13h2M6 14h1M8 14h2M6 15h2" />
</svg>