<svg xmlns="http://www.w3.org/2000/svg" viewBox="0 -0.5 16 16" shape-rendering="crispEdges">
<metadata>Made with Pixels to Svg https://codepen.io/shshaw/pen/XbxvNj</metadata>
<path stroke="#ffffff" d="M5 0h6M3 1h2M11 1h2M2 2h1M13 2h1M1 3h1M4 3h1M11 3h1M14 3h1M1 4h1M4 4h2M10 4h2M14 4h1M0 5h1M3 5h10M15 5h1M0 6h1M3 6h10M15 6h1M0 7h1M3 7h10M15 7h1M0 8h1M3 8h10M15 8h1M0 9h1M3 9h10M15 9h1M0 10h1M4 10h8M15 10h1M1 11h1M3 11h1M6 11h4M14 11h1M1 12h1M4 12h1M6 12h4M14 12h1M2 13h1M5 13h5M13 13h1M3 14h2M6 14h4M11 14h2M5 15h6" />
</svg>