<svg xmlns="http://www.w3.org/2000/svg" viewBox="0 -0.5 22 30" shape-rendering="crispEdges">
<metadata>Made with Pixels to Svg https://codepen.io/shshaw/pen/XbxvNj</metadata>
<path stroke="#000000" d="M6 6h2M6 7h2M4 8h2M8 8h2M4 9h2M8 9h2M4 10h2M8 10h12M4 11h2M8 11h12M4 12h2M8 12h2M12 12h2M16 12h2M20 12h2M4 13h2M8 13h2M12 13h2M16 13h2M20 13h2M2 14h4M20 14h2M2 15h4M20 15h2M0 16h2M4 16h2M20 16h2M0 17h2M4 17h2M20 17h2M0 18h2M4 18h2M20 18h2M0 19h2M4 19h2M20 19h2M0 20h2M20 20h2M0 21h2M20 21h2M2 22h2M20 22h2M2 23h2M20 23h2M4 24h18M4 25h18M6 26h2M18 26h2M6 27h2M18 27h2M8 28h10M8 29h10" />
<path stroke="#ffffff" d="M6 8h2M6 9h2M6 10h2M6 11h2M6 12h2M10 12h2M14 12h2M18 12h2M6 13h2M10 13h2M14 13h2M18 13h2M6 14h14M6 15h14M2 16h2M6 16h14M2 17h2M6 17h14M2 18h2M6 18h14M2 19h2M6 19h14M2 20h18M2 21h18M4 22h16M4 23h16M8 26h10M8 27h10" />
</svg>