<svg xmlns="http://www.w3.org/2000/svg" width="16" height="16" viewBox="0 0 16 16"><path shape-rendering="crispEdges" style="fill:#fff;opacity:255" d="M11 1h1v1h-1zm1 0h1v1h-1zm1 0h1v1h-1zm1 0h1v1h-1zM7 2h1v1H7zm1 0h1v1H8zm1 0h1v1H9zm1 0h1v1h-1zm1 0h1v1h-1zm1 0h1v1h-1zm1 0h1v1h-1zm1 0h1v1h-1zM4 3h1v1H4zm1 0h1v1H5zm1 0h1v1H6zm1 0h1v1H7zm1 0h1v1H8zm1 0h1v1H9zm1 0h1v1h-1zm3 0h1v1h-1zm1 0h1v1h-1zM4 4h1v1H4zm1 0h1v1H5zm1 0h1v1H6zm1 0h1v1H7zm6 0h1v1h-1zm1 0h1v1h-1zM4 5h1v1H4zm1 0h1v1H5zm8 0h1v1h-1zm1 0h1v1h-1zM4 6h1v1H4zm1 0h1v1H5zm8 0h1v1h-1zm1 0h1v1h-1zM4 7h1v1H4zm1 0h1v1H5zm8 0h1v1h-1zm1 0h1v1h-1zM4 8h1v1H4zm1 0h1v1H5zm8 0h1v1h-1zm1 0h1v1h-1zM4 9h1v1H4zm1 0h1v1H5zm6 0h1v1h-1zm1 0h1v1h-1zm1 0h1v1h-1zm1 0h1v1h-1zM4 10h1v1H4zm1 0h1v1H5zm5 0h1v1h-1zm1 0h1v1h-1zm1 0h1v1h-1zm1 0h1v1h-1zm1 0h1v1h-1zM2 11h1v1H2zm1 0h1v1H3zm1 0h1v1H4zm1 0h1v1H5zm5 0h1v1h-1zm1 0h1v1h-1zm1 0h1v1h-1zm1 0h1v1h-1zm1 0h1v1h-1zM1 12h1v1H1zm1 0h1v1H2zm1 0h1v1H3zm1 0h1v1H4zm1 0h1v1H5zm5 0h1v1h-1zm1 0h1v1h-1zm1 0h1v1h-1zm1 0h1v1h-1zm1 0h1v1h-1zM1 13h1v1H1zm1 0h1v1H2zm1 0h1v1H3zm1 0h1v1H4zm1 0h1v1H5zm6 0h1v1h-1zm1 0h1v1h-1zm1 0h1v1h-1zM1 14h1v1H1zm1 0h1v1H2zm1 0h1v1H3zm1 0h1v1H4zm1 0h1v1H5zm-3 1h1v1H2zm1 0h1v1H3zm1 0h1v1H4z"/></svg>