<svg xmlns="http://www.w3.org/2000/svg" width="16" height="16" viewBox="0 0 16 16"><path shape-rendering="crispEdges" fill="#fff" d="M9 1h1v1H9zm1 0h1v1h-1zM9 2h1v1H9zm1 0h1v1h-1zM9 3h1v1H9zm1 0h1v1h-1zM9 4h1v1H9zm1 0h1v1h-1zM9 5h1v1H9zm1 0h1v1h-1zM9 6h1v1H9zm1 0h1v1h-1zM9 7h1v1H9zm1 0h1v1h-1zM9 8h1v1H9zm1 0h1v1h-1zM7 9h1v1H7zm1 0h1v1H8zm1 0h1v1H9zm1 0h1v1h-1zm-4 1h1v1H6zm1 0h1v1H7zm1 0h1v1H8zm1 0h1v1H9zm1 0h1v1h-1zm-4 1h1v1H6zm1 0h1v1H7zm1 0h1v1H8zm1 0h1v1H9zm1 0h1v1h-1zm-4 1h1v1H6zm1 0h1v1H7zm1 0h1v1H8zm1 0h1v1H9zm1 0h1v1h-1zm-3 1h1v1H7zm1 0h1v1H8zm1 0h1v1H9z"/></svg>