<svg xmlns="http://www.w3.org/2000/svg" viewBox="0 -0.5 16 16" shape-rendering="crispEdges">
<metadata>Made with Pixels to Svg https://codepen.io/shshaw/pen/XbxvNj</metadata>
<path stroke="#ffffff" d="M5 0h6M3 1h2M11 1h2M2 2h1M13 2h1M1 3h1M14 3h1M1 4h1M14 4h1M0 5h1M5 5h3M15 5h1M0 6h1M4 6h1M8 6h1M15 6h1M0 7h1M4 7h1M7 7h3M15 7h1M0 8h1M3 8h1M6 8h1M8 8h1M10 8h1M15 8h1M0 9h1M3 9h1M6 9h2M10 9h1M15 9h1M0 10h1M3 10h1M10 10h1M15 10h1M1 11h2M8 11h2M14 11h1M1 12h3M5 12h3M14 12h1M0 13h5M13 13h1M0 14h5M11 14h2M1 15h2M5 15h6" />
</svg>